<?xml version="1.0" standalone="no"?>
<!DOCTYPE svg PUBLIC "-//W3C//DTD SVG 20010904//EN"
 "http://www.w3.org/TR/2001/REC-SVG-20010904/DTD/svg10.dtd">
<svg version="1.0" xmlns="http://www.w3.org/2000/svg"
 width="512.000000pt" height="512.000000pt" viewBox="0 0 512.000000 512.000000"
 preserveAspectRatio="xMidYMid meet">

<g transform="translate(0.000000,512.000000) scale(0.100000,-0.100000)"
fill="#000000" stroke="none">
<path d="M3375 4661 c-89 -25 -161 -68 -230 -137 -102 -102 -156 -231 -157
-374 -1 -134 28 -223 117 -355 139 -208 395 -425 690 -585 l95 -51 95 51 c295
160 551 377 690 585 89 132 118 221 117 355 -1 242 -165 452 -402 515 -146 39
-343 1 -452 -85 -45 -36 -52 -37 -90 -4 -110 92 -319 130 -473 85z"/>
<path d="M2283 4064 c-46 -23 -60 -50 -98 -187 -115 -419 -303 -745 -561 -973
-212 -187 -277 -262 -347 -404 l-42 -85 -3 -855 c-2 -608 1 -863 9 -882 11
-27 24 -34 119 -64 30 -9 102 -38 160 -64 250 -112 231 -110 1048 -110 768 0
765 0 907 69 108 52 192 116 260 198 64 78 128 200 150 288 8 33 51 305 95
605 60 402 80 562 77 612 -8 133 -92 252 -217 312 l-65 31 -587 5 c-579 5
-588 5 -608 26 -12 11 -21 34 -21 50 0 16 29 121 64 234 128 405 188 651 189
780 3 243 -181 430 -420 430 -50 0 -88 -6 -109 -16z"/>
<path d="M349 2691 l-24 -19 -3 -1090 -2 -1089 21 -26 20 -27 339 0 339 0 20
27 21 26 -2 1089 -3 1090 -24 19 c-22 18 -43 19 -351 19 -308 0 -329 -1 -351
-19z"/>
</g>
</svg>
